<svg xmlns="http://www.w3.org/2000/svg" xmlns:xlink="http://www.w3.org/1999/xlink" width="500" zoomAndPan="magnify" viewBox="0 0 375 374.999991" height="500" preserveAspectRatio="xMidYMid meet" version="1.0"><defs><g/></defs><g fill="#ffffff" fill-opacity="1"><g transform="translate(26.601565, 198.715564)"><g><path d="M 7.765625 -28.703125 L 6.984375 -21.5 C 6.671875 -20.640625 6.4375 -19.859375 6.28125 -19.015625 L 5.359375 -16.53125 C 4.265625 -12.875 3.875 -10.390625 3.875 -8.140625 C 3.875 -7.375 3.953125 -6.671875 4.03125 -5.890625 C 4.34375 -1.9375 6.90625 2.09375 7.84375 2.09375 C 8.21875 2.09375 13.109375 1.625 13.96875 -5.359375 C 14.359375 -7.984375 13.65625 -10.015625 14.96875 -13.1875 L 15.984375 -16.53125 C 15.828125 -18.078125 17.375 -20.171875 17.21875 -21.71875 C 17.140625 -22.5 17.21875 -23.046875 17.140625 -24.125 L 17.921875 -26.84375 C 17.921875 -27.078125 18.46875 -27.15625 18.625 -27.15625 C 19.09375 -27.15625 19.546875 -27.078125 20.015625 -27.078125 C 23.75 -26.53125 27.546875 -26.453125 31.265625 -26.453125 C 32.4375 -26.453125 32.984375 -26.609375 33.359375 -27.390625 L 33.59375 -28.171875 C 33.515625 -29.015625 32.671875 -29.640625 31.96875 -29.640625 C 30.1875 -29.640625 30.421875 -29.171875 28.703125 -29.171875 C 25.296875 -29.171875 22.1875 -29.875 21.109375 -29.875 L 20.09375 -30.109375 C 19.78125 -30.265625 19.703125 -30.1875 19.625 -30.734375 C 20.40625 -33.75 22.96875 -43.765625 23.90625 -46.9375 L 23.828125 -46.9375 C 23.90625 -47.640625 23.90625 -48.34375 23.828125 -49.046875 C 23.828125 -49.34375 24.203125 -49.421875 24.515625 -49.578125 C 26 -49.5 27.390625 -49.421875 28.859375 -49.421875 C 29.09375 -49.421875 29.40625 -49.34375 29.640625 -49.34375 C 29.953125 -49.265625 30.265625 -49.265625 30.578125 -49.265625 L 32.203125 -49.265625 C 33.28125 -49.109375 34.453125 -48.96875 35.53125 -48.734375 L 36.078125 -48.578125 C 37.09375 -48.265625 37.78125 -48.265625 38.796875 -48.265625 C 42.59375 -47.640625 46.484375 -47.015625 50.28125 -46.859375 C 50.90625 -46.796875 51.515625 -46.796875 52.0625 -46.796875 L 52.765625 -46.796875 C 52.921875 -46.796875 53.078125 -46.796875 53.3125 -46.859375 C 53.921875 -46.859375 54.546875 -46.859375 55.25 -46.9375 L 55.484375 -46.9375 C 55.640625 -46.9375 55.796875 -46.9375 56.015625 -47.015625 C 63.546875 -47.640625 70.53125 -50.28125 72.78125 -54.859375 L 72.78125 -55.25 C 72.78125 -55.796875 72.234375 -55.9375 71.546875 -55.9375 C 70.21875 -55.9375 68.75 -55.015625 67.046875 -54.234375 C 64.40625 -53 59.515625 -52.21875 55.25 -52.21875 C 53.84375 -52.21875 52.296875 -52.296875 50.59375 -52.453125 L 49.5 -52.53125 C 49.1875 -52.6875 48.8125 -52.765625 48.421875 -52.765625 C 48.1875 -52.765625 47.953125 -52.6875 47.71875 -52.6875 C 46.328125 -52.84375 44.84375 -53 43.453125 -53.234375 C 41.28125 -54 41.125 -53.625 40.109375 -53.921875 C 39.578125 -53.84375 38.71875 -54.46875 38.015625 -54.390625 L 36.46875 -54.3125 L 33.75 -54.78125 C 31.1875 -55.328125 29.09375 -55.9375 27.9375 -56.484375 L 26.84375 -57.265625 L 26.296875 -58.125 C 25.921875 -59.4375 25.140625 -59.671875 23.96875 -59.671875 C 23.046875 -59.671875 20.40625 -59.90625 18.234375 -59.90625 C 16.6875 -59.90625 15.4375 -59.75 15.28125 -59.359375 L 11.40625 -59.90625 C 10.171875 -60.0625 10.015625 -60.0625 9.859375 -60.0625 C 2.875 -60.0625 -2.171875 -57.109375 -1.9375 -51.59375 C -1.78125 -50.59375 -1.546875 -49.65625 -1.15625 -48.65625 L 0.234375 -48.96875 C 0.15625 -50.125 3.796875 -52.296875 7.21875 -52.296875 C 9.46875 -51.828125 11.25 -52.375 13.421875 -51.359375 L 13.5 -51.359375 C 12.109375 -45.390625 9.46875 -35.078125 9.078125 -34.140625 C 9.15625 -32.984375 8.140625 -32.984375 7.765625 -32.984375 C 7.453125 -32.984375 7.21875 -33.125 7.0625 -33.125 C 6.828125 -33.125 4.8125 -32.90625 4.890625 -32.046875 C 5.046875 -30.875 5.359375 -30.265625 5.4375 -29.875 Z M 7.765625 -28.703125 "/></g></g></g><g fill="#ffffff" fill-opacity="1"><g transform="translate(58.641301, 198.715564)"><g><path d="M 21.65625 -4.65625 C 22.109375 -4.421875 22.578125 -4.421875 23.125 -4.421875 C 28.09375 -4.421875 34.53125 -13.734375 36.078125 -18 C 36.78125 -19.25 36.15625 -19.78125 35.453125 -19.78125 C 35.15625 -19.78125 34.921875 -19.703125 34.6875 -19.546875 C 33.828125 -18.234375 33.125 -17.078125 32.4375 -15.828125 C 31.96875 -15.125 31.578125 -14.359375 31.109375 -13.734375 C 31.109375 -13.65625 31.03125 -13.65625 30.953125 -13.5 C 29.5625 -11.640625 26.078125 -6.90625 23.59375 -6.90625 C 23.4375 -6.90625 23.203125 -6.90625 22.890625 -6.984375 L 22.5 -6.984375 C 22.96875 -7.984375 23.90625 -9.625 23.90625 -9.9375 L 23.671875 -11.640625 L 23.828125 -12.265625 C 24.046875 -12.875 24.28125 -13.265625 23.75 -13.890625 L 23.515625 -14.203125 C 23.4375 -14.28125 23.4375 -14.359375 23.359375 -14.359375 C 23.4375 -15.125 23.359375 -15.515625 23.203125 -15.984375 C 23.203125 -16.375 23.203125 -16.6875 22.96875 -16.921875 L 22.65625 -16.921875 C 22.34375 -18.46875 20.5625 -18.9375 19.40625 -18.9375 C 17.921875 -18.859375 16.6875 -19.015625 15.984375 -13.5 C 16.375 -10.703125 18 -7.6875 19.46875 -6.75 C 19.25 -5.8125 18.234375 -4.03125 16.84375 -2.953125 C 16.453125 -2.71875 16.21875 -2.25 15.90625 -1.859375 C 14.828125 -0.625 13.734375 -0.234375 12.03125 -0.234375 C 11.25 -0.234375 10.546875 -0.390625 9.9375 -0.703125 C 9.234375 -0.9375 8.453125 -2.71875 8.453125 -3.71875 C 8.453125 -4.65625 8.6875 -5.96875 9 -7.296875 L 9 -7.609375 L 9.234375 -9 C 9.390625 -10.390625 9.625 -12.265625 9.859375 -12.796875 C 10.546875 -14.75 11.640625 -16.609375 12.796875 -18.15625 C 14.828125 -20.484375 19.625 -23.046875 22.109375 -23.203125 C 22.34375 -23.203125 22.578125 -23.125 22.8125 -23.125 C 24.125 -23.125 24.515625 -23.75 24.359375 -24.125 C 24.4375 -27.3125 21.265625 -28.859375 18.234375 -30.421875 L 18 -30.578125 C 17.21875 -30.875 16.53125 -31.03125 15.59375 -31.03125 C 13.890625 -31.03125 12.03125 -30.34375 10.625 -29.40625 L 10.171875 -29.171875 C 8.6875 -28.328125 7.375 -27.3125 6.203125 -26 L 6.203125 -26.078125 C 3.421875 -23.28125 0.625 -18.625 0.390625 -14.75 C 0.15625 -13.109375 -0.15625 -8.921875 -0.078125 -7.21875 C 0.234375 -3.1875 2.640625 -0.234375 6.203125 1.46875 C 6.59375 1.546875 7.21875 1.703125 7.6875 1.703125 L 9.859375 2.71875 L 10.703125 2.71875 C 11.796875 2.71875 12.71875 2.640625 13.734375 2.25 C 14.75 2.09375 15.28125 1.703125 15.984375 1.15625 C 16.21875 0.9375 16.53125 0.78125 16.84375 0.546875 C 17.84375 0 19.25 -1.15625 19.625 -2.015625 C 19.625 -2.015625 19.625 -2.171875 19.703125 -2.25 C 19.9375 -3.03125 20.71875 -3.265625 20.875 -3.5625 Z M 19.625 -15.59375 C 19.9375 -15.59375 20.25 -15.359375 20.40625 -15.28125 C 20.875 -14.828125 21.265625 -14.046875 21.34375 -13.5 L 21.71875 -11.796875 C 21.71875 -11.71875 21.65625 -11.640625 21.65625 -11.5625 C 21.65625 -11.25 21.34375 -11.015625 21.265625 -10.625 L 20.5625 -8.765625 L 19.546875 -9.859375 L 19.546875 -10.390625 C 18.78125 -12.640625 19.015625 -13.421875 19.09375 -13.890625 C 19.171875 -14.203125 19.328125 -14.59375 19.25 -14.828125 C 19.328125 -15.125 19.40625 -15.359375 19.40625 -15.4375 C 19.546875 -15.59375 19.625 -15.671875 19.625 -15.59375 Z M 19.625 -15.59375 "/></g></g></g><g fill="#ffffff" fill-opacity="1"><g transform="translate(89.28464, 198.715564)"><g><path d="M 13.109375 -28.546875 C 13.421875 -28.546875 13.65625 -28.328125 13.8125 -27.859375 L 14.046875 -25.53125 C 14.359375 -25.375 14.671875 -23.828125 14.96875 -22.5 L 16.6875 -16.6875 L 14.203125 -15.125 L 13.109375 -13.5 C 9.234375 -10.390625 5.515625 -7.453125 5.8125 -3.953125 C 5.96875 -2.484375 7.296875 -1.015625 7.921875 -1.015625 C 7.984375 -1.015625 8.140625 -1.234375 8.296875 -1.46875 C 8.53125 -2.171875 9.078125 -3.5625 10.3125 -4.578125 C 11.171875 -4.890625 14.4375 -8.6875 15.046875 -9.546875 C 15.59375 -9.9375 16.21875 -10.546875 16.765625 -11.09375 C 16.921875 -11.171875 17.21875 -11.484375 17.375 -11.640625 L 17.453125 -11.09375 L 18.15625 -8.765625 L 19.46875 -7.0625 L 19.46875 -7.140625 L 20.484375 -5.046875 C 21.796875 -2.25 22.734375 -0.3125 26.6875 -0.15625 C 27.15625 -0.15625 27.78125 -0.3125 28.484375 -0.625 L 28.859375 -0.46875 C 30.953125 -0.9375 32.59375 -2.875 34.140625 -4.578125 L 34.6875 -5.125 L 35.375 -6.125 C 35.84375 -6.671875 35.921875 -6.75 36 -6.75 C 36 -6.75 36.078125 -6.90625 36.46875 -7.53125 L 37.640625 -9.15625 L 38.328125 -10.46875 C 41.125 -14.828125 42.21875 -17.375 42.21875 -17.765625 C 42.140625 -18.3125 41.828125 -18.546875 41.515625 -18.546875 C 40.890625 -18.546875 39.34375 -15.984375 38.015625 -13.8125 L 36.703125 -11.71875 L 33.984375 -8.0625 C 33.4375 -7.453125 32.671875 -6.984375 32.046875 -6.984375 C 31.890625 -6.984375 31.734375 -6.984375 31.578125 -7.0625 L 31.03125 -6.75 C 30.421875 -6.359375 29.953125 -6.046875 29.5625 -5.96875 C 29.484375 -5.96875 29.40625 -6.046875 29.40625 -6.046875 C 28.171875 -6.59375 26.53125 -10.625 25.375 -13.96875 L 24.90625 -17 L 26.53125 -19.40625 C 26.453125 -19.46875 26.453125 -19.546875 26.453125 -19.546875 C 26.609375 -19.703125 26.765625 -20.171875 26.921875 -20.40625 L 29.25 -22.03125 C 29.25 -22.03125 29.25 -22.109375 29.328125 -22.1875 L 29.640625 -22.96875 L 31.8125 -24.90625 L 33.28125 -26.921875 C 35.234375 -29.5625 36.546875 -31.421875 36.390625 -33.28125 C 36.3125 -33.828125 36.234375 -34.21875 35.765625 -34.296875 C 34.53125 -34.296875 34.21875 -33.828125 34.296875 -33.28125 C 34.296875 -33.0625 34.296875 -32.984375 34.375 -32.828125 C 34.375 -32.75 34.453125 -32.671875 34.453125 -32.59375 C 34.296875 -30.953125 31.421875 -28.546875 29.25 -26.765625 C 28.25 -26.078125 27.390625 -25.375 27.078125 -24.984375 C 26.921875 -24.828125 26.609375 -24.515625 26.53125 -24.28125 C 25.84375 -23.75 25.140625 -23.28125 24.4375 -22.8125 L 23.4375 -22.03125 C 23.203125 -23.75 22.65625 -25.140625 22.03125 -25.765625 C 19.859375 -29.484375 17.296875 -31.96875 13.890625 -31.96875 C 10.546875 -31.5 7.296875 -26.078125 6.203125 -24.203125 L 5.515625 -23.046875 L 5.515625 -23.125 C 4.5 -21.421875 3.109375 -19.171875 3.265625 -17.921875 C 3.34375 -17.453125 3.640625 -17.140625 4.03125 -17.140625 C 5.28125 -17.140625 6.359375 -19.546875 7.296875 -21.5 L 7.21875 -21.5 L 8.0625 -23.125 L 8.0625 -23.046875 C 9.390625 -25.296875 11.875 -28.546875 13.109375 -28.546875 Z M 13.109375 -28.546875 "/></g></g></g><g fill="#ffffff" fill-opacity="1"><g transform="translate(127.065155, 198.715564)"><g><path d="M 19.78125 -10.703125 L 19.78125 -10.78125 L 20.015625 -11.40625 L 20.015625 -11.328125 C 21.421875 -13.5 22.578125 -15.59375 23.59375 -17.296875 L 24.203125 -18.390625 C 24.4375 -18.859375 24.75 -19.328125 24.984375 -19.625 L 24.984375 -19.703125 C 25.140625 -19.859375 25.140625 -20.015625 25.0625 -20.171875 C 25.453125 -21.1875 25.0625 -21.65625 24.515625 -21.65625 C 24.125 -21.65625 23.75 -21.5 23.359375 -21.109375 C 21.34375 -17.078125 17.84375 -11.484375 15.046875 -8.140625 L 14.515625 -7.53125 C 13.734375 -6.671875 12.875 -5.734375 11.953125 -5.203125 C 10.703125 -4.109375 9.703125 -3.34375 9.15625 -3.109375 C 8.53125 -3.265625 8.140625 -3.71875 8.140625 -4.265625 C 8.140625 -4.96875 8.53125 -5.8125 9.078125 -6.828125 L 9.390625 -7.140625 C 9.703125 -7.453125 9.703125 -7.53125 9.625 -7.765625 L 9.546875 -7.84375 C 9.9375 -9.78125 10.546875 -11.953125 11.328125 -14.046875 L 11.328125 -14.515625 C 11.484375 -14.828125 11.71875 -15.359375 11.796875 -15.671875 C 12.1875 -16.609375 12.640625 -17.765625 13.03125 -19.015625 C 12.953125 -19.328125 12.953125 -19.625 12.953125 -19.9375 C 12.953125 -20.171875 12.953125 -20.640625 12.875 -20.875 C 12.875 -21.109375 12.875 -21.5 12.796875 -21.71875 L 12.71875 -21.953125 C 12.640625 -21.953125 12.640625 -22.03125 12.640625 -22.109375 L 12.796875 -22.734375 C 13.109375 -23.75 13.265625 -24.828125 13.1875 -25.609375 C 12.796875 -28.328125 11.015625 -31.65625 7.921875 -31.65625 C 7.453125 -31.65625 7.0625 -31.578125 6.75 -31.34375 C 5.96875 -31.03125 5.515625 -30.1875 5.28125 -29.015625 L 5.28125 -28.546875 C 4.65625 -26.453125 3.71875 -24.203125 2.796875 -21.953125 L 1.546875 -18 C 1.15625 -16.140625 0.859375 -14.515625 0.625 -12.953125 L 0.625 -11.5625 C 0.625 -11.09375 0.546875 -10.625 0.546875 -10.171875 C 0.546875 -5.890625 2.09375 -1.015625 6.828125 -0.078125 C 7.984375 -0.078125 9 -0.15625 10.09375 -0.703125 L 10.09375 -0.625 C 11.015625 -1.015625 11.953125 -1.703125 13.03125 -2.40625 L 12.953125 -2.40625 L 13.34375 -2.640625 C 14.046875 -3.265625 14.75 -4.109375 15.4375 -4.890625 L 16.140625 -5.671875 C 17.375 -6.984375 18.390625 -8.453125 19.328125 -9.859375 Z M 19.09375 -44.765625 C 19.46875 -45.3125 19.703125 -45.859375 19.9375 -46.25 L 19.859375 -46.25 C 20.328125 -46.859375 20.640625 -47.484375 20.5625 -48.34375 C 20.40625 -48.8125 20.015625 -49.34375 19.546875 -49.734375 C 18.234375 -50.828125 15.90625 -51.671875 14.828125 -51.59375 C 13.65625 -51.59375 12.34375 -50.984375 11.25 -49.96875 C 10.46875 -49.265625 9.9375 -48.1875 10.015625 -46.5625 C 10.015625 -44.46875 11.015625 -42.59375 12.109375 -41.671875 C 13.109375 -41.046875 14.203125 -40.65625 15.203125 -40.578125 C 16.453125 -40.578125 16.765625 -40.96875 18.15625 -43.21875 Z M 19.09375 -44.765625 "/></g></g></g><g fill="#ffffff" fill-opacity="1"><g transform="translate(145.761469, 198.715564)"><g><path d="M 16.921875 -31.96875 C 16.609375 -31.96875 16.21875 -31.96875 15.828125 -31.8125 C 15.75 -31.890625 15.671875 -31.890625 15.515625 -31.890625 C 15.203125 -31.890625 14.75 -31.65625 14.359375 -31.5 C 13.96875 -31.265625 13.65625 -31.109375 13.421875 -31.109375 L 12.875 -31.109375 C 12.640625 -31.109375 12.421875 -31.1875 12.1875 -31.1875 C 11.640625 -31.1875 10.9375 -31.03125 10.25 -30.421875 L 9.859375 -30.109375 L 9.859375 -30.1875 C 9.625 -30.109375 9.46875 -29.953125 9.234375 -29.71875 C 8.296875 -28.9375 7.375 -27.9375 6.515625 -26.921875 L 5.515625 -25.84375 C 4.734375 -25.296875 3.5625 -23.28125 2.796875 -22.03125 L 2.484375 -21.578125 L 1.9375 -20.09375 C 1.15625 -18.546875 0.46875 -16.921875 0.078125 -15.203125 C 0.078125 -15.046875 0 -14.828125 0 -14.671875 C -0.078125 -14.59375 -0.078125 -14.4375 -0.078125 -14.359375 C -0.3125 -12.71875 -0.546875 -11.015625 -0.546875 -9.390625 C -0.46875 -9.3125 -0.546875 -8.21875 -0.546875 -7.0625 C -0.625 -5.890625 -0.625 -4.734375 -0.625 -4.734375 C -0.625 -4.109375 -0.3125 -3.421875 0.078125 -2.796875 L 0 -2.796875 C 0.546875 0.625 2.40625 2.09375 3.796875 2.640625 L 3.875 2.71875 C 5.671875 3.875 8.453125 4.265625 10.546875 4.265625 C 12.953125 4.265625 14.4375 3.1875 16.453125 1.859375 L 18.859375 0.234375 C 20.25 -0.703125 21.875 -2.484375 22.96875 -3.796875 L 23.125 -3.953125 C 23.828125 -5.203125 25.296875 -6.515625 26.234375 -7.765625 L 27.78125 -9.78125 L 28.015625 -10.46875 C 28.09375 -10.625 28.171875 -10.703125 28.171875 -10.859375 L 28.546875 -11.484375 C 29.484375 -12.640625 30.421875 -14.046875 30.8125 -14.890625 C 31.890625 -16.296875 32.671875 -17.296875 32.59375 -18.15625 C 32.515625 -18.546875 32.515625 -18.703125 32.359375 -18.703125 C 32.359375 -18.703125 32.28125 -18.625 32.125 -18.546875 L 32.125 -18.625 L 31.734375 -18.46875 C 31.578125 -18.46875 31.265625 -18.390625 31.03125 -18.234375 C 30.34375 -18 28.78125 -15.359375 27.3125 -12.953125 C 26.53125 -11.640625 25.296875 -10.390625 24.75 -9.625 C 24.515625 -9.234375 24.125 -8.6875 23.90625 -8.21875 C 19.46875 -2.640625 13.65625 0.625 11.40625 0.625 C 10.09375 0.625 8.609375 0.078125 8.53125 -0.78125 C 8.453125 -1.703125 8.296875 -3.1875 8.296875 -4.65625 C 8.296875 -6.515625 8.453125 -8.375 9.15625 -9.234375 L 11.09375 -10.171875 C 11.953125 -10.546875 15.125 -13.109375 16.140625 -14.203125 C 17.53125 -15.28125 18.859375 -16.609375 19.859375 -18 L 20.25 -18.3125 C 21.34375 -19.546875 22.96875 -22.421875 23.125 -23.125 C 23.671875 -24.28125 23.90625 -25.453125 23.90625 -26.53125 C 23.203125 -31.8125 17.765625 -31.96875 16.921875 -31.96875 Z M 16.21875 -22.421875 C 17.375 -23.96875 18.859375 -25.53125 19.46875 -25.6875 C 19.78125 -25.53125 20.015625 -25.21875 20.25 -25.0625 C 20.09375 -22.265625 17.6875 -18.703125 14.59375 -15.671875 L 12.875 -14.28125 C 12.34375 -13.8125 11.71875 -13.265625 11.09375 -12.953125 C 11.5625 -14.515625 13.1875 -17.84375 15.28125 -21.03125 C 15.28125 -21.109375 15.4375 -21.265625 15.4375 -21.34375 C 15.515625 -21.65625 15.75 -21.953125 15.828125 -22.109375 Z M 16.21875 -22.421875 "/></g></g></g><g fill="#ffffff" fill-opacity="1"><g transform="translate(173.146526, 198.715564)"><g><path d="M 5.515625 -1.703125 C 8.140625 -2.015625 8.765625 -3.71875 9.46875 -5.671875 L 10.171875 -7.453125 C 10.09375 -7.609375 10.09375 -7.765625 10.09375 -7.984375 L 10.09375 -8.375 L 11.953125 -14.28125 L 14.359375 -19.9375 L 14.359375 -19.859375 C 16.6875 -23.203125 19.78125 -26.921875 21.03125 -27.703125 C 20.875 -27.3125 20.5625 -26.53125 20.015625 -25.453125 L 19.25 -23.75 L 19.46875 -22.8125 C 19.40625 -22.5 19.09375 -22.03125 19.09375 -21.796875 C 18.625 -20.71875 18 -19.25 18 -18.625 L 18 -18.46875 L 18.15625 -18.15625 C 17.21875 -15.203125 16.453125 -12.03125 16.6875 -9.78125 C 16.921875 -6.671875 19.25 -4.1875 20.09375 -4.1875 C 20.40625 -4.1875 20.328125 -4.34375 20.40625 -4.34375 C 21.796875 -3.640625 23.515625 -3.34375 24.515625 -3.265625 C 25.53125 -4.8125 25.84375 -6.203125 26.6875 -7.296875 C 26.53125 -7.6875 26.921875 -11.015625 27.234375 -13.34375 C 27.390625 -14.671875 27.46875 -15.828125 27.46875 -15.90625 C 27.46875 -16.375 27.15625 -16.921875 26.921875 -17.53125 C 26.765625 -17.84375 26.609375 -18.15625 26.53125 -18.546875 C 29.015625 -22.734375 33.203125 -26.84375 35.078125 -27.703125 C 35 -27.390625 34.6875 -27 34.453125 -26.53125 C 33.359375 -24.203125 31.34375 -20.09375 31.578125 -17.21875 C 30.65625 -14.4375 29.796875 -10.78125 29.875 -8.84375 C 29.953125 -8.375 30.109375 -7.84375 30.421875 -7.375 C 30.953125 -3.953125 32.671875 -1.546875 34.765625 -1.15625 L 34.921875 -1.15625 C 35.3125 -1.09375 35.609375 -1.015625 36 -1.015625 C 40.734375 -1.015625 43.84375 -5.4375 46.640625 -9.46875 L 47.640625 -10.859375 C 49.8125 -13.96875 51.90625 -17.375 53.234375 -20.015625 L 53.234375 -19.9375 L 54.15625 -21.5 C 54.390625 -21.875 54.46875 -22.34375 54.390625 -22.65625 C 54.390625 -23.203125 54.078125 -23.515625 53.546875 -23.515625 C 52.453125 -23.515625 50.4375 -20.09375 48.734375 -17.140625 C 47.015625 -13.65625 40.5 -5.28125 37.640625 -4.1875 C 37.5625 -4.265625 37.484375 -4.421875 37.484375 -4.5 C 37.484375 -5.125 37.859375 -6.203125 38.484375 -7.6875 C 38.484375 -7.84375 38.40625 -8.21875 38.40625 -8.453125 C 38.953125 -10.625 39.421875 -12.953125 39.8125 -15.203125 L 39.734375 -15.203125 L 41.515625 -19.015625 C 41.515625 -19.40625 41.515625 -19.703125 41.359375 -20.171875 C 41.828125 -21.65625 42.21875 -23.046875 42.359375 -24.4375 C 42.28125 -24.984375 42.0625 -25.453125 41.75 -25.921875 C 41.75 -26.453125 41.828125 -27.390625 41.828125 -27.78125 C 41.515625 -30.421875 39.65625 -32.828125 37.78125 -32.828125 C 36.3125 -32.828125 33.28125 -29.71875 31.03125 -27.390625 L 30.578125 -27 L 30.65625 -27 L 28.9375 -25.53125 L 27.46875 -24.046875 C 27.625 -24.75 27.703125 -25.375 27.703125 -26.078125 C 27.390625 -28.78125 25.609375 -32.59375 23.359375 -32.59375 C 21.578125 -32.515625 16.296875 -26.84375 13.96875 -23.828125 L 12.796875 -22.5 C 12.796875 -22.890625 12.875 -23.046875 13.03125 -23.671875 C 13.265625 -24.90625 13.578125 -26.453125 13.421875 -28.015625 C 13.03125 -32.515625 10.25 -34.765625 8.84375 -34.765625 C 8.375 -34.765625 7.0625 -33.59375 5.734375 -32.125 C 4.96875 -31.65625 4.03125 -27.078125 3.421875 -23.59375 L 2.875 -20.640625 L 1.3125 -16.609375 L 1.78125 -14.671875 C 1.234375 -13.03125 0.625 -11.09375 0.703125 -9.625 C 0.703125 -9.546875 0.703125 -9.390625 0.859375 -9.3125 C 0.859375 -9.15625 0.78125 -8.921875 0.78125 -8.765625 C 0.625 -8.0625 0.46875 -7.53125 0.546875 -6.828125 C 0.9375 -2.875 3.640625 -0.15625 4.109375 -0.15625 Z M 5.515625 -1.703125 "/></g></g></g><g fill="#ffffff" fill-opacity="1"><g transform="translate(219.615773, 198.715564)"><g><path d="M 6.828125 -5.359375 L 6.75 -5.4375 C 6.75 -5.671875 6.984375 -6.4375 7.140625 -6.984375 L 7.140625 -6.90625 L 7.21875 -7.375 C 7.765625 -8.765625 8.140625 -9.625 8.6875 -10.78125 L 9.390625 -12.265625 C 9.859375 -13.5 10.3125 -14.59375 11.09375 -15.828125 C 11.484375 -17.53125 13.1875 -19.015625 14.59375 -20.25 L 15.984375 -21.578125 C 17.6875 -23.4375 21.34375 -24.046875 23.046875 -24.046875 C 23.203125 -24.046875 23.4375 -24.046875 23.59375 -23.96875 C 24.28125 -24.125 24.59375 -24.671875 24.515625 -25.453125 C 24.359375 -26.921875 20.40625 -29.71875 18.3125 -30.265625 L 17.921875 -30.265625 C 16.21875 -30.265625 12.640625 -29.171875 10.625 -27.78125 L 10.703125 -27.78125 L 9.546875 -27.234375 C 6.828125 -25.375 4.65625 -22.65625 2.71875 -20.09375 L 2.015625 -18.546875 C -0.390625 -14.59375 -2.25 -9.703125 -2.015625 -6.203125 C -1.46875 -0.546875 3.5625 1.546875 7.375 1.546875 C 8.0625 1.546875 9 0.859375 10.015625 0.078125 L 10.3125 -0.15625 C 11.25 -0.234375 12.265625 -1.625 13.109375 -2.953125 C 13.34375 -3.34375 13.5 -3.71875 13.890625 -4.109375 L 15.359375 -7.0625 L 15.359375 -6.984375 L 16.453125 -8.609375 C 16.453125 -8.453125 16.453125 -8.6875 16.375 -8.21875 C 16.375 -8.140625 16.296875 -8.0625 16.296875 -7.984375 L 16.375 -7.375 C 16.453125 -6.828125 16.453125 -6.4375 16.453125 -6.046875 C 16.453125 -5.671875 16.453125 -5.125 16.53125 -4.734375 C 16.53125 -4.03125 16.6875 -3.1875 16.921875 -2.5625 C 17.453125 -0.625 20.015625 2.484375 22.421875 2.484375 C 23.046875 2.484375 23.59375 2.25 24.203125 2.015625 L 24.828125 1.78125 C 26.296875 1.703125 29.5625 -1.390625 30.1875 -2.796875 C 30.8125 -3.5625 32.046875 -5.671875 33.28125 -7.6875 C 34.453125 -9.546875 35.53125 -11.328125 36.078125 -12.03125 C 37.40625 -14.359375 38.40625 -15.75 39.03125 -16.609375 C 39.5 -17.296875 39.734375 -17.6875 39.734375 -17.921875 C 39.8125 -18.3125 39.8125 -18.546875 39.8125 -18.78125 C 39.734375 -19.328125 39.421875 -19.546875 39.03125 -19.546875 C 38.71875 -19.546875 38.328125 -19.40625 38.09375 -19.171875 L 36.234375 -16.21875 C 35.84375 -15.4375 35.078125 -14.4375 34.765625 -13.734375 C 34.21875 -12.5 33.515625 -11.640625 33.125 -11.015625 L 30.8125 -6.90625 C 29.328125 -4.5 26.453125 -0.859375 24.59375 -0.859375 C 24.203125 -0.859375 23.4375 -0.9375 23.4375 -1.15625 C 23.359375 -1.46875 23.671875 -2.171875 24.125 -3.109375 L 25.0625 -5.890625 C 25.21875 -6.59375 25.453125 -7.21875 25.6875 -7.84375 C 26.078125 -8.765625 26.375 -9.703125 26.453125 -10.9375 C 26.453125 -12.640625 26.765625 -13.421875 27 -13.890625 C 27.078125 -14.125 27.15625 -14.4375 27.15625 -14.671875 C 27.15625 -14.828125 27.390625 -15.59375 27.703125 -16.375 C 28.09375 -17.375 28.546875 -18.546875 28.484375 -18.78125 C 28.40625 -19.40625 28.015625 -19.625 27.625 -19.9375 L 27.703125 -19.9375 L 27.546875 -20.015625 L 27.546875 -20.09375 C 27.546875 -20.171875 27.546875 -20.25 27.46875 -20.40625 C 26.296875 -21.5 25.140625 -21.5 23.671875 -21.5 C 22.8125 -21.5 20.015625 -21.34375 20.015625 -20.328125 C 19.78125 -19.703125 19.546875 -19.25 19.40625 -19.09375 C 19.171875 -18.78125 18.859375 -18.390625 18.546875 -17.453125 C 18.3125 -16.609375 18.078125 -15.75 17.765625 -15.125 C 17 -13.96875 16.21875 -12.34375 15.359375 -10.546875 C 14.203125 -8.21875 12.875 -5.515625 11.640625 -3.796875 C 10.703125 -2.796875 9.859375 -1.859375 8.375 -1.859375 L 8.140625 -1.859375 C 7.6875 -1.859375 7.375 -2.25 7.296875 -3.03125 C 7.296875 -3.265625 7.21875 -3.421875 7.140625 -3.5625 C 7.0625 -3.875 6.984375 -4.265625 6.984375 -4.578125 Z M 6.828125 -5.359375 "/></g></g></g><g fill="#ffffff" fill-opacity="1"><g transform="translate(253.982859, 198.715564)"><g><path d="M 35.609375 -18.234375 C 35.3125 -17.53125 35.15625 -16.84375 34.84375 -16.296875 C 34.609375 -15.75 34.0625 -14.890625 33.515625 -14.125 L 32.984375 -13.109375 C 31.5 -10.703125 30.03125 -8.453125 27.859375 -6.515625 C 27.46875 -5.96875 26.921875 -5.59375 26.375 -5.125 L 25.140625 -4.03125 L 25.21875 -4.03125 C 24.671875 -3.5625 23.125 -2.09375 22.109375 -2.09375 C 21.796875 -2.09375 21.71875 -2.796875 21.65625 -3.265625 L 21.5 -3.953125 L 21.875 -4.5 C 22.109375 -4.890625 22.34375 -5.203125 22.5 -5.671875 L 22.5 -6.4375 C 22.578125 -7.21875 22.578125 -8.375 22.578125 -9.3125 C 22.265625 -12.265625 21.109375 -13.96875 18.9375 -14.828125 L 18.15625 -15.125 L 18.3125 -15.125 C 19.40625 -15.125 20.5625 -15.203125 21.71875 -15.671875 L 22.96875 -16.375 L 22.96875 -16.296875 C 24.28125 -16.921875 25.53125 -17.53125 26.53125 -18.703125 C 26.6875 -18.78125 26.765625 -18.9375 26.84375 -19.09375 L 27.078125 -19.40625 C 28.703125 -21.03125 30.34375 -22.890625 30.8125 -24.828125 C 30.953125 -25.296875 31.109375 -25.765625 31.03125 -26.296875 C 30.8125 -29.25 27.078125 -31.109375 24.75 -31.109375 C 23.515625 -31.109375 22.265625 -30.8125 21.03125 -30.34375 L 20.875 -30.34375 L 18.859375 -29.5625 C 17.921875 -29.171875 17.84375 -28.703125 17.84375 -28.25 C 17.921875 -27.46875 18.3125 -27.3125 18.859375 -27.3125 C 19.46875 -27.3125 20.25 -27.46875 21.109375 -27.703125 L 22.109375 -28.015625 C 22.1875 -28.015625 22.34375 -27.9375 22.421875 -27.78125 C 22.421875 -27.703125 22.421875 -27.78125 22.34375 -27.625 L 21.953125 -26.84375 C 21.578125 -25.921875 21.03125 -24.828125 20.25 -24.046875 C 19.859375 -23.671875 19.46875 -23.125 19.171875 -22.65625 C 18.9375 -22.34375 18.78125 -22.03125 18.390625 -21.71875 L 16.6875 -20.015625 C 15.59375 -17.921875 14.59375 -17.375 13.03125 -16.453125 L 9.78125 -14.75 L 11.171875 -17.375 C 11.5625 -18.46875 11.875 -19.171875 12.1875 -19.78125 C 12.5 -20.40625 12.875 -21.03125 13.109375 -21.65625 C 13.1875 -21.875 13.1875 -22.109375 13.1875 -22.34375 C 13.265625 -22.578125 13.265625 -22.96875 13.421875 -23.359375 C 15.28125 -28.9375 15.359375 -29.484375 15.4375 -30.109375 L 15.90625 -32.4375 C 15.90625 -33.0625 15.90625 -33.75 16.0625 -34.375 L 17.140625 -41.28125 C 17.453125 -42.140625 17.6875 -42.90625 17.765625 -43.296875 C 17.84375 -43.609375 17.84375 -44 18.15625 -44.765625 L 18.9375 -47.015625 C 19.015625 -47.328125 19.171875 -47.875 19.09375 -48.265625 C 19.015625 -49.578125 18.46875 -50.046875 18 -50.671875 C 17.765625 -50.828125 17.609375 -51.0625 17.453125 -51.296875 C 16.84375 -51.828125 14.890625 -52.21875 13.96875 -52.21875 C 10.625 -52.21875 9.78125 -49.1875 9.390625 -47.171875 L 9.390625 -47.25 L 8.6875 -45.390625 L 8.140625 -42.984375 L 6.515625 -34.453125 L 5.890625 -31.734375 C 5.671875 -30.8125 5.4375 -29.796875 5.28125 -28.859375 L 5.203125 -28.328125 L 4.890625 -27.46875 L 3.640625 -21.796875 L 2.40625 -17.609375 C 1.9375 -15.90625 1.546875 -14.046875 1.234375 -12.421875 C 1.015625 -11.484375 0.703125 -10.46875 0.46875 -9.390625 C 0 -7.84375 -0.46875 -6.046875 -0.78125 -4.34375 C -1.09375 -3.03125 -1.390625 -1.234375 -1.234375 0.15625 C -1.234375 0.78125 -0.859375 1.015625 -0.15625 1.015625 L 0.9375 1.015625 C 1.234375 1.015625 1.625 0.9375 2.5625 0.9375 C 3.34375 0.9375 4.1875 -0.9375 4.265625 -1.234375 C 3.796875 -1.859375 4.421875 -2.328125 4.96875 -2.796875 C 5.359375 -3.03125 5.8125 -3.421875 5.96875 -3.796875 C 6.28125 -4.03125 6.4375 -4.65625 6.59375 -5.203125 C 6.671875 -5.59375 6.90625 -6.125 7.0625 -6.4375 L 7.453125 -6.984375 C 7.609375 -7.296875 7.921875 -7.6875 8.140625 -7.921875 C 8.609375 -8.375 8.765625 -9.234375 8.84375 -10.015625 C 9 -10.78125 9.078125 -11.5625 9.46875 -11.5625 C 9.703125 -11.5625 10.09375 -11.40625 10.46875 -11.328125 C 10.78125 -11.171875 11.171875 -11.09375 11.5625 -11.09375 C 12.71875 -10.78125 14.203125 -8.765625 14.4375 -8.296875 C 14.4375 -7.84375 14.28125 -6.984375 14.203125 -6.4375 C 14.046875 -5.8125 13.8125 -4.96875 13.890625 -4.421875 C 13.96875 -4.03125 14.203125 -3.484375 14.515625 -2.875 L 14.75 -2.328125 L 17.453125 0.859375 C 17.921875 1.390625 18.15625 1.703125 19.09375 1.859375 C 19.171875 1.859375 23.203125 0.234375 25.0625 -0.78125 C 25.609375 -1.15625 26.296875 -1.9375 26.921875 -2.71875 C 27.546875 -3.34375 28.015625 -4.03125 28.703125 -4.578125 C 32.28125 -7.453125 34.453125 -10.9375 36.9375 -15.125 L 37.484375 -16.140625 C 37.859375 -17 38.015625 -17.765625 37.9375 -18.390625 C 37.9375 -18.78125 38.015625 -19.09375 38.09375 -19.46875 C 38.171875 -19.78125 38.25 -20.09375 38.171875 -20.484375 C 38.171875 -20.875 38.09375 -21.03125 37.859375 -21.265625 L 37.640625 -21.421875 C 37.5625 -21.421875 37.5625 -21.421875 37.484375 -21.578125 C 36.625 -21.265625 36.078125 -19.625 35.609375 -18.234375 Z M 35.609375 -18.234375 "/></g></g></g><g fill="#ffffff" fill-opacity="1"><g transform="translate(287.031128, 198.715564)"><g><path d="M 16.921875 -31.96875 C 16.609375 -31.96875 16.21875 -31.96875 15.828125 -31.8125 C 15.75 -31.890625 15.671875 -31.890625 15.515625 -31.890625 C 15.203125 -31.890625 14.75 -31.65625 14.359375 -31.5 C 13.96875 -31.265625 13.65625 -31.109375 13.421875 -31.109375 L 12.875 -31.109375 C 12.640625 -31.109375 12.421875 -31.1875 12.1875 -31.1875 C 11.640625 -31.1875 10.9375 -31.03125 10.25 -30.421875 L 9.859375 -30.109375 L 9.859375 -30.1875 C 9.625 -30.109375 9.46875 -29.953125 9.234375 -29.71875 C 8.296875 -28.9375 7.375 -27.9375 6.515625 -26.921875 L 5.515625 -25.84375 C 4.734375 -25.296875 3.5625 -23.28125 2.796875 -22.03125 L 2.484375 -21.578125 L 1.9375 -20.09375 C 1.15625 -18.546875 0.46875 -16.921875 0.078125 -15.203125 C 0.078125 -15.046875 0 -14.828125 0 -14.671875 C -0.078125 -14.59375 -0.078125 -14.4375 -0.078125 -14.359375 C -0.3125 -12.71875 -0.546875 -11.015625 -0.546875 -9.390625 C -0.46875 -9.3125 -0.546875 -8.21875 -0.546875 -7.0625 C -0.625 -5.890625 -0.625 -4.734375 -0.625 -4.734375 C -0.625 -4.109375 -0.3125 -3.421875 0.078125 -2.796875 L 0 -2.796875 C 0.546875 0.625 2.40625 2.09375 3.796875 2.640625 L 3.875 2.71875 C 5.671875 3.875 8.453125 4.265625 10.546875 4.265625 C 12.953125 4.265625 14.4375 3.1875 16.453125 1.859375 L 18.859375 0.234375 C 20.25 -0.703125 21.875 -2.484375 22.96875 -3.796875 L 23.125 -3.953125 C 23.828125 -5.203125 25.296875 -6.515625 26.234375 -7.765625 L 27.78125 -9.78125 L 28.015625 -10.46875 C 28.09375 -10.625 28.171875 -10.703125 28.171875 -10.859375 L 28.546875 -11.484375 C 29.484375 -12.640625 30.421875 -14.046875 30.8125 -14.890625 C 31.890625 -16.296875 32.671875 -17.296875 32.59375 -18.15625 C 32.515625 -18.546875 32.515625 -18.703125 32.359375 -18.703125 C 32.359375 -18.703125 32.28125 -18.625 32.125 -18.546875 L 32.125 -18.625 L 31.734375 -18.46875 C 31.578125 -18.46875 31.265625 -18.390625 31.03125 -18.234375 C 30.34375 -18 28.78125 -15.359375 27.3125 -12.953125 C 26.53125 -11.640625 25.296875 -10.390625 24.75 -9.625 C 24.515625 -9.234375 24.125 -8.6875 23.90625 -8.21875 C 19.46875 -2.640625 13.65625 0.625 11.40625 0.625 C 10.09375 0.625 8.609375 0.078125 8.53125 -0.78125 C 8.453125 -1.703125 8.296875 -3.1875 8.296875 -4.65625 C 8.296875 -6.515625 8.453125 -8.375 9.15625 -9.234375 L 11.09375 -10.171875 C 11.953125 -10.546875 15.125 -13.109375 16.140625 -14.203125 C 17.53125 -15.28125 18.859375 -16.609375 19.859375 -18 L 20.25 -18.3125 C 21.34375 -19.546875 22.96875 -22.421875 23.125 -23.125 C 23.671875 -24.28125 23.90625 -25.453125 23.90625 -26.53125 C 23.203125 -31.8125 17.765625 -31.96875 16.921875 -31.96875 Z M 16.21875 -22.421875 C 17.375 -23.96875 18.859375 -25.53125 19.46875 -25.6875 C 19.78125 -25.53125 20.015625 -25.21875 20.25 -25.0625 C 20.09375 -22.265625 17.6875 -18.703125 14.59375 -15.671875 L 12.875 -14.28125 C 12.34375 -13.8125 11.71875 -13.265625 11.09375 -12.953125 C 11.5625 -14.515625 13.1875 -17.84375 15.28125 -21.03125 C 15.28125 -21.109375 15.4375 -21.265625 15.4375 -21.34375 C 15.515625 -21.65625 15.75 -21.953125 15.828125 -22.109375 Z M 16.21875 -22.421875 "/></g></g></g><g fill="#ffffff" fill-opacity="1"><g transform="translate(314.416197, 198.715564)"><g><path d="M 1.3125 -15.515625 C 1.46875 -14.046875 1.703125 -13.578125 2.09375 -13.578125 C 2.5625 -13.578125 5.8125 -18.46875 6.28125 -19.625 L 7.453125 -22.03125 L 7.453125 -21.953125 C 7.984375 -22.578125 7.765625 -22.578125 7.984375 -23.359375 C 8.375 -24.359375 8.84375 -25.0625 9.234375 -25.609375 C 9.3125 -25.6875 9.390625 -25.765625 9.546875 -25.765625 C 10.015625 -25.765625 10.703125 -25.375 11.171875 -25.21875 C 11.71875 -24.984375 12.265625 -24.828125 12.71875 -24.828125 C 12.796875 -24.828125 12.953125 -24.90625 13.109375 -24.984375 C 13.1875 -24.90625 13.1875 -24.90625 13.34375 -24.90625 C 13.5 -24.90625 13.890625 -25.140625 14.203125 -25.296875 C 14.28125 -25.375 14.359375 -25.375 14.4375 -25.375 L 14.4375 -25.296875 C 14.4375 -25.140625 14.4375 -24.984375 14.359375 -24.828125 L 14.28125 -24.203125 C 14.28125 -24.203125 14.359375 -24.125 14.359375 -24.203125 C 14.515625 -22.8125 13.65625 -21.265625 12.875 -19.625 C 11.875 -17.609375 10.625 -14.890625 10.625 -12.34375 C 10.546875 -11.09375 10.25 -9.703125 9.9375 -8.453125 C 9.625 -7.0625 9.390625 -5.8125 9.46875 -4.890625 C 10.09375 2.015625 13.65625 7.140625 20.09375 7.6875 C 22.96875 7.6875 26.078125 6.828125 29.640625 2.09375 C 30.421875 0.46875 31.1875 -1.15625 32.203125 -2.71875 L 32.984375 -3.875 C 33.515625 -4.578125 34.84375 -7.296875 35.6875 -9 L 36.3125 -10.25 L 36.78125 -11.5625 C 38.71875 -16.296875 38.484375 -17.140625 38.015625 -17.453125 L 38.09375 -17.453125 L 37.9375 -17.609375 C 37.859375 -17.84375 37.859375 -18 37.859375 -18.15625 C 37.859375 -18.546875 37.859375 -18.78125 37.78125 -18.78125 C 37.09375 -18.78125 35.921875 -14.890625 35.765625 -14.359375 C 35.453125 -13.34375 35.078125 -12.265625 34.53125 -10.9375 C 31.890625 -3.953125 25.609375 4.265625 22.65625 4.265625 C 22.5 4.265625 22.265625 4.265625 22.109375 4.109375 C 21.71875 4.34375 21.421875 4.5 21.1875 4.5 C 19.78125 4.5 19.40625 1.390625 19.09375 -0.9375 L 19.015625 -1.625 C 19.171875 -1.78125 19.09375 -1.859375 19.09375 -2.09375 L 18.9375 -3.640625 L 18.9375 -4.8125 C 18.9375 -6.4375 19.171875 -8.140625 19.625 -9.859375 L 21.265625 -13.578125 C 22.34375 -16.84375 23.671875 -19.40625 24.75 -21.34375 C 25.84375 -23.359375 26.609375 -24.828125 26.53125 -25.765625 C 26.296875 -28.484375 21.71875 -31.734375 20.640625 -31.734375 C 20.171875 -31.65625 18.46875 -30.953125 16.140625 -29.5625 L 13.03125 -27.703125 L 13.109375 -27.703125 C 12.71875 -27.546875 12.421875 -27.46875 12.109375 -27.46875 C 12.109375 -27.46875 12.109375 -27.546875 12.03125 -27.625 L 12.03125 -27.546875 L 11.71875 -28.171875 L 11.5625 -28.171875 C 11.015625 -28.171875 10.78125 -28.703125 10.625 -28.703125 C 10.546875 -28.703125 10.46875 -28.625 10.46875 -28.625 C 10.625 -29.171875 10.859375 -29.40625 11.40625 -30.578125 C 13.03125 -33.984375 15.59375 -39.5 15.359375 -43.296875 C 15.125 -45.625 13.265625 -47.015625 11.09375 -47.015625 C 5.890625 -47.015625 2.796875 -39.03125 3.03125 -33.671875 C 3.03125 -33.28125 3.1875 -32.984375 3.34375 -32.75 L 3.421875 -32.359375 C 3.421875 -31.890625 4.265625 -30.734375 5.125 -29.5625 C 5.96875 -28.484375 6.828125 -27.3125 6.828125 -27 C 6.90625 -25.921875 5.4375 -22.96875 4.34375 -20.953125 C 3.71875 -19.78125 1.3125 -15.671875 1.3125 -15.515625 Z M -30.265625 7.609375 C -35.84375 7.609375 -41.28125 7.984375 -45.546875 8.453125 C -46.640625 8.6875 -47.71875 8.84375 -48.8125 8.84375 C -49.5 8.921875 -51.296875 9.234375 -56.796875 11.015625 L -59.828125 12.34375 L -55.875 12.421875 C -55.796875 12.421875 -55.71875 12.5 -55.640625 12.5 C -55.484375 12.5 -55.25 12.421875 -55.09375 12.34375 C -54.234375 12.1875 -52.6875 12.1875 -50.90625 12.109375 C -48.734375 12.109375 -46.25 12.03125 -45 11.71875 C -43.375 11.328125 -41.046875 11.171875 -38.71875 11.015625 C -37.09375 10.9375 -35.453125 10.78125 -34.140625 10.546875 C -34.0625 10.46875 -34.0625 10.46875 -33.984375 10.46875 C -33.828125 10.46875 -33.75 10.625 -33.59375 10.625 C -33.515625 10.703125 -33.515625 10.625 -33.4375 10.625 L -32.59375 10.625 C -24.4375 11.015625 -18.15625 11.484375 -10.9375 13.5 C -8.921875 14.203125 -6.75 14.75 -4.5 15.359375 C 1.9375 17.140625 8.53125 19.09375 10.09375 21.65625 C 11.25 23.671875 11.875 24.984375 12.640625 24.984375 C 13.578125 24.984375 15.125 23.359375 18.46875 19.546875 L 19.546875 18.3125 C 18 15.671875 14.890625 11.796875 7.21875 11.09375 C 1.3125 8.765625 -4.34375 6.75 -13.265625 6.75 C -16.6875 6.75 -20.484375 7.0625 -25.0625 7.6875 C -26.765625 7.609375 -28.546875 7.609375 -30.265625 7.609375 Z M 11.640625 -40.734375 C 11.875 -40.65625 12.03125 -40.34375 12.03125 -40.03125 C 12.1875 -38.25 10.625 -34.140625 8.921875 -30.421875 L 8.84375 -30.734375 C 8.53125 -31.421875 8.0625 -32.59375 7.921875 -33.75 C 7.921875 -36 10.25 -40.109375 11.640625 -40.734375 Z M 11.640625 -40.734375 "/></g></g></g></svg>